<svg id="Qr-Code--Streamline-Openmoji" viewBox="0 0 32 32" xmlns="http://www.w3.org/2000/svg" height="32" width="32">
  <desc>Qr Code Streamline Emoji: https://streamlinehq.com</desc>
  <path fill="#fff" stroke="#111827" stroke-linejoin="round" stroke-width="0.8889" d="M0.9472 0.9472h30.1056v30.1056H0.9472Z"/>
  <path fill="#111827" d="M5.9648 5.9648h2.5088v2.5088H5.9648Zm0 17.5616h2.5088v2.5088H5.9648Zm17.5616-17.5616h2.5088v2.5088h-2.5088Z"/>
  <path fill="none" stroke="#111827" stroke-linejoin="round" stroke-width="0.8889" d="M3.456 3.456h7.5264v7.5264H3.456Zm2.5088 2.5088h2.5088v2.5088H5.9648ZM3.456 21.0176h7.5264V28.544H3.456Zm2.5088 2.5088h2.5088v2.5088H5.9648ZM21.0176 3.456H28.544v7.5264h-7.5264Zm2.5088 2.5088h2.5088v2.5088h-2.5088Z"/>
  <path fill="none" stroke="#2563eb" stroke-linecap="round" stroke-linejoin="round" stroke-width="1.2" d="M4.7104 16v-1.2544H9.728m-3.7632 0v-1.2544m2.5088 1.2544v3.7632h1.2544m7.5264-5.0176v-1.2544M28.544 14.7456h-1.2544m-7.5264 5.0176h1.2544v-1.2544m-10.0352-5.0176h1.2544m2.5088 0h3.7632M17.2544 3.456v2.5088H16v5.0176h-2.5088v1.2544M16 5.9648h-2.5088M16 7.2192h-1.2544V4.7104M10.9824 16H16m-3.7632 0v2.5088h-1.2544m3.7632-2.5088v1.2544m-1.2544 3.7632v-1.2544h3.7632v3.7632h2.5088V22.272h5.0176V28.544M16 18.5088v2.5088h3.7632m2.5088-2.5088h-2.5088v5.0176h1.2544m2.5088-8.7808v2.5088h1.2544v2.5088h-1.2544v2.5088m1.2544-5.0176V16h1.2544m0 8.7808h-2.5088v1.2544m-10.0352 0h1.2544v1.2544H16v-2.5088M28.544 13.4912v3.7632h-1.2544M21.0176 16v-1.2544M28.544 19.7632v1.2544m-1.2544 5.0176h1.2544m-10.0352-18.816v1.2544"/>
</svg>
